<svg
  version="1.1"
  xmlns="http://www.w3.org/2000/svg"
  viewBox="0 0 100 100"
>
  <linearGradient
    id="lg1"
    gradientUnits="userSpaceOnUse"
    gradientTransform="rotate(90)"
  >
    <stop
      offset="0"
      style="stop-color:#FFFFFF"
    />
    <stop
      offset="1"
      style="stop-color:#DDDDDD"
    />
  </linearGradient>
  <path
    fill="url(#lg1)"
    d="M100,88c0,6.628-5.372,12-12,12H12c-6.627,0-12-5.372-12-12V12C0,5.373,5.373,0,12,0h76
	c6.628,0,12,5.373,12,12V88z"
  />
  <linearGradient
    id="lg2"
    gradientUnits="userSpaceOnUse"
    gradientTransform="rotate(0)"
  >
    <stop
      offset="0"
      style="stop-color:#000000"
    />
    <stop
      offset="1"
      style="stop-color:#247000"
    />
  </linearGradient>
  <path
    fill="url(#lg2)"
    stroke="#000000"
    stroke-width="5"
    stroke-miterlimit="10"
    d="M35,97.5h30c0,0,20-42.5,20-52.5
	c0-20-22.5-27.5-22.5-27.5l2.5-15H35l2.5,15C37.5,17.5,15,25,15,45C15,55,35,97.5,35,97.5z"
  />
  <path
    fill="none"
    stroke="#000000"
    stroke-width="5"
    stroke-miterlimit="10"
    d="M63.781,10.067c20.595-10.297,16,20,16,20"
  />
  <path
    fill="none"
    stroke="#000000"
    stroke-width="5"
    stroke-miterlimit="10"
    d="M36.219,10.068c-20.595-10.297-16,20-16,20"
  />
</svg>