<svg
  version="1.1"
  xmlns="http://www.w3.org/2000/svg"
  viewBox="0 0 100 100"
>
  <linearGradient
    id="lg1"
    gradientUnits="userSpaceOnUse"
    gradientTransform="rotate(90)"
  >
    <stop
      offset="0"
      style="stop-color:#FFFFFF"
    />
    <stop
      offset="1"
      style="stop-color:#DDDDDD"
    />
  </linearGradient>
  <path
    fill="url(#lg1)"
    d="M100,88c0,6.628-5.372,12-12,12H12c-6.627,0-12-5.372-12-12V12C0,5.373,5.373,0,12,0h76
	c6.628,0,12,5.373,12,12V88z"
  />
  <linearGradient
    id="lg2"
    gradientUnits="userSpaceOnUse"
    gradientTransform="rotate(0)"
  >
    <stop
      offset="0"
      style="stop-color:#000000"
    />
    <stop
      offset="1"
      style="stop-color:#247000"
    />
  </linearGradient>
  <path
    fill="url(#lg2)"
    stroke="#000000"
    stroke-width="5"
    stroke-miterlimit="10"
    d="M92.5,28c0-11.046-7.835-20-17.5-20
	c-3.586,0-6.917,1.237-9.691,3.352c0.025-0.749,0.084-1.409,0.191-1.852c0.471-1.918,3.5-7,3.5-7H31c0,0,3.03,5.082,3.5,7
	c0.108,0.442,0.166,1.103,0.192,1.852C31.917,9.237,28.586,8,25,8C15.335,8,7.5,16.954,7.5,28c0,7.019,3.17,13.182,7.956,16.751
	C15.165,46.438,15,48.187,15,50c0,13.744,18.5,40.5,18.5,40.5l-2.5,7h38l-2.5-7c0,0,18.5-26.756,18.5-40.5
	c0-1.813-0.164-3.563-0.456-5.249C89.33,41.182,92.5,35.019,92.5,28z M15,28c0-6.903,4.478-12.5,10-12.5
	c2.789,0,5.309,1.43,7.122,3.732c-3.582,2.808-10.347,8.93-14.215,17.577C16.111,34.549,15,31.437,15,28z M82.093,36.809
	c-3.866-8.647-10.634-14.769-14.215-17.577C69.691,16.93,72.211,15.5,75,15.5c5.521,0,10,5.597,10,12.5
	C85,31.437,83.889,34.549,82.093,36.809z"
  />
</svg>